<svg xmlns="http://www.w3.org/2000/svg" width="25" height="15" fill="none"><path fill="#83B3D3" fill-rule="evenodd" d="M24.1164 1.80445c.166-.546 0-.948-.795-.948h-2.625c-.668 0-.976.347-1.143.73 0 0-1.335 3.196-3.226 5.272-.612.602-.89.793-1.224.793-.167 0-.418-.191-.418-.738v-5.109c0-.656-.184-.948-.74-.948H9.81738c-.417 0-.668.304-.668.593 0 .621.94602.765 1.04302 2.513v3.798c0 .833-.153.98399-.48702.98399-.89 0-3.055-3.21099-4.34-6.88499-.249-.715-.501-1.003-1.172-1.003h-2.627c-.75 0-.9.347-.9.73 0 .682.89 4.07 4.145 8.55095 2.17 3.06 5.22502 4.719 8.00802 4.719 1.669 0 1.875-.368 1.875-1.003v-2.313c0-.737.158-.884.687-.884.39 0 1.057.192 2.615 1.667 1.78 1.749 2.073 2.533 3.075 2.533h2.625c.75 0 1.126-.368.91-1.096-.238-.724-1.088-1.775-2.215-3.022-.612-.71-1.53-1.47495-1.809-1.85795-.389-.491-.278-.71001 0-1.147 0 0 3.2-4.426 3.533-5.929h.001Z" clip-rule="evenodd"/></svg>